<?xml version="1.0" encoding="utf-8"?>
 <!DOCTYPE svg PUBLIC "-//W3C//DTD SVG 20010904//EN" "http://www.w3.org/TR/2001/REC-SVG-20010904/DTD/svg10.dtd">
<svg class="Qr-item-svg" width="100%" height="100%" viewBox="0 0 29 29" fill="white" xmlns="http://www.w3.org/2000/svg" xmlns:xlink="http://www.w3.org/1999/xlink" data-reactroot=""><rect fill="black" width="1" height="1" id="simpleRect"></rect><use fill="black" x="0" y="0" href="#simpleRect"></use><use fill="black" x="0" y="1" href="#simpleRect"></use><use fill="black" x="0" y="2" href="#simpleRect"></use><use fill="black" x="0" y="3" href="#simpleRect"></use><use fill="black" x="0" y="4" href="#simpleRect"></use><use fill="black" x="0" y="5" href="#simpleRect"></use><use fill="black" x="0" y="6" href="#simpleRect"></use><use fill="black" x="0" y="12" href="#simpleRect"></use><use fill="black" x="0" y="13" href="#simpleRect"></use><use fill="black" x="0" y="15" href="#simpleRect"></use><use fill="black" x="0" y="16" href="#simpleRect"></use><use fill="black" x="0" y="18" href="#simpleRect"></use><use fill="black" x="0" y="19" href="#simpleRect"></use><use fill="black" x="0" y="22" href="#simpleRect"></use><use fill="black" x="0" y="23" href="#simpleRect"></use><use fill="black" x="0" y="24" href="#simpleRect"></use><use fill="black" x="0" y="25" href="#simpleRect"></use><use fill="black" x="0" y="26" href="#simpleRect"></use><use fill="black" x="0" y="27" href="#simpleRect"></use><use fill="black" x="0" y="28" href="#simpleRect"></use><use fill="black" x="1" y="0" href="#simpleRect"></use><use fill="black" x="1" y="6" href="#simpleRect"></use><use fill="black" x="1" y="8" href="#simpleRect"></use><use fill="black" x="1" y="9" href="#simpleRect"></use><use fill="black" x="1" y="10" href="#simpleRect"></use><use fill="black" x="1" y="12" href="#simpleRect"></use><use fill="black" x="1" y="15" href="#simpleRect"></use><use fill="black" x="1" y="17" href="#simpleRect"></use><use fill="black" x="1" y="18" href="#simpleRect"></use><use fill="black" x="1" y="20" href="#simpleRect"></use><use fill="black" x="1" y="22" href="#simpleRect"></use><use fill="black" x="1" y="28" href="#simpleRect"></use><use fill="black" x="2" y="0" href="#simpleRect"></use><use fill="black" x="2" y="2" href="#simpleRect"></use><use fill="black" x="2" y="3" href="#simpleRect"></use><use fill="black" x="2" y="4" href="#simpleRect"></use><use fill="black" x="2" y="6" href="#simpleRect"></use><use fill="black" x="2" y="10" href="#simpleRect"></use><use fill="black" x="2" y="12" href="#simpleRect"></use><use fill="black" x="2" y="17" href="#simpleRect"></use><use fill="black" x="2" y="19" href="#simpleRect"></use><use fill="black" x="2" y="20" href="#simpleRect"></use><use fill="black" x="2" y="22" href="#simpleRect"></use><use fill="black" x="2" y="24" href="#simpleRect"></use><use fill="black" x="2" y="25" href="#simpleRect"></use><use fill="black" x="2" y="26" href="#simpleRect"></use><use fill="black" x="2" y="28" href="#simpleRect"></use><use fill="black" x="3" y="0" href="#simpleRect"></use><use fill="black" x="3" y="2" href="#simpleRect"></use><use fill="black" x="3" y="3" href="#simpleRect"></use><use fill="black" x="3" y="4" href="#simpleRect"></use><use fill="black" x="3" y="6" href="#simpleRect"></use><use fill="black" x="3" y="9" href="#simpleRect"></use><use fill="black" x="3" y="10" href="#simpleRect"></use><use fill="black" x="3" y="11" href="#simpleRect"></use><use fill="black" x="3" y="12" href="#simpleRect"></use><use fill="black" x="3" y="13" href="#simpleRect"></use><use fill="black" x="3" y="14" href="#simpleRect"></use><use fill="black" x="3" y="18" href="#simpleRect"></use><use fill="black" x="3" y="19" href="#simpleRect"></use><use fill="black" x="3" y="22" href="#simpleRect"></use><use fill="black" x="3" y="24" href="#simpleRect"></use><use fill="black" x="3" y="25" href="#simpleRect"></use><use fill="black" x="3" y="26" href="#simpleRect"></use><use fill="black" x="3" y="28" href="#simpleRect"></use><use fill="black" x="4" y="0" href="#simpleRect"></use><use fill="black" x="4" y="2" href="#simpleRect"></use><use fill="black" x="4" y="3" href="#simpleRect"></use><use fill="black" x="4" y="4" href="#simpleRect"></use><use fill="black" x="4" y="6" href="#simpleRect"></use><use fill="black" x="4" y="12" href="#simpleRect"></use><use fill="black" x="4" y="13" href="#simpleRect"></use><use fill="black" x="4" y="14" href="#simpleRect"></use><use fill="black" x="4" y="22" href="#simpleRect"></use><use fill="black" x="4" y="24" href="#simpleRect"></use><use fill="black" x="4" y="25" href="#simpleRect"></use><use fill="black" x="4" y="26" href="#simpleRect"></use><use fill="black" x="4" y="28" href="#simpleRect"></use><use fill="black" x="5" y="0" href="#simpleRect"></use><use fill="black" x="5" y="6" href="#simpleRect"></use><use fill="black" x="5" y="8" href="#simpleRect"></use><use fill="black" x="5" y="9" href="#simpleRect"></use><use fill="black" x="5" y="12" href="#simpleRect"></use><use fill="black" x="5" y="15" href="#simpleRect"></use><use fill="black" x="5" y="16" href="#simpleRect"></use><use fill="black" x="5" y="18" href="#simpleRect"></use><use fill="black" x="5" y="19" href="#simpleRect"></use><use fill="black" x="5" y="20" href="#simpleRect"></use><use fill="black" x="5" y="22" href="#simpleRect"></use><use fill="black" x="5" y="28" href="#simpleRect"></use><use fill="black" x="6" y="0" href="#simpleRect"></use><use fill="black" x="6" y="1" href="#simpleRect"></use><use fill="black" x="6" y="2" href="#simpleRect"></use><use fill="black" x="6" y="3" href="#simpleRect"></use><use fill="black" x="6" y="4" href="#simpleRect"></use><use fill="black" x="6" y="5" href="#simpleRect"></use><use fill="black" x="6" y="6" href="#simpleRect"></use><use fill="black" x="6" y="8" href="#simpleRect"></use><use fill="black" x="6" y="10" href="#simpleRect"></use><use fill="black" x="6" y="12" href="#simpleRect"></use><use fill="black" x="6" y="14" href="#simpleRect"></use><use fill="black" x="6" y="16" href="#simpleRect"></use><use fill="black" x="6" y="18" href="#simpleRect"></use><use fill="black" x="6" y="20" href="#simpleRect"></use><use fill="black" x="6" y="22" href="#simpleRect"></use><use fill="black" x="6" y="23" href="#simpleRect"></use><use fill="black" x="6" y="24" href="#simpleRect"></use><use fill="black" x="6" y="25" href="#simpleRect"></use><use fill="black" x="6" y="26" href="#simpleRect"></use><use fill="black" x="6" y="27" href="#simpleRect"></use><use fill="black" x="6" y="28" href="#simpleRect"></use><use fill="black" x="7" y="8" href="#simpleRect"></use><use fill="black" x="7" y="17" href="#simpleRect"></use><use fill="black" x="7" y="18" href="#simpleRect"></use><use fill="black" x="7" y="19" href="#simpleRect"></use><use fill="black" x="8" y="4" href="#simpleRect"></use><use fill="black" x="8" y="5" href="#simpleRect"></use><use fill="black" x="8" y="6" href="#simpleRect"></use><use fill="black" x="8" y="7" href="#simpleRect"></use><use fill="black" x="8" y="9" href="#simpleRect"></use><use fill="black" x="8" y="10" href="#simpleRect"></use><use fill="black" x="8" y="11" href="#simpleRect"></use><use fill="black" x="8" y="15" href="#simpleRect"></use><use fill="black" x="8" y="18" href="#simpleRect"></use><use fill="black" x="8" y="19" href="#simpleRect"></use><use fill="black" x="8" y="22" href="#simpleRect"></use><use fill="black" x="8" y="23" href="#simpleRect"></use><use fill="black" x="8" y="27" href="#simpleRect"></use><use fill="black" x="9" y="4" href="#simpleRect"></use><use fill="black" x="9" y="9" href="#simpleRect"></use><use fill="black" x="9" y="11" href="#simpleRect"></use><use fill="black" x="9" y="16" href="#simpleRect"></use><use fill="black" x="9" y="17" href="#simpleRect"></use><use fill="black" x="9" y="19" href="#simpleRect"></use><use fill="black" x="9" y="20" href="#simpleRect"></use><use fill="black" x="9" y="24" href="#simpleRect"></use><use fill="black" x="9" y="27" href="#simpleRect"></use><use fill="black" x="9" y="28" href="#simpleRect"></use><use fill="black" x="10" y="6" href="#simpleRect"></use><use fill="black" x="10" y="7" href="#simpleRect"></use><use fill="black" x="10" y="11" href="#simpleRect"></use><use fill="black" x="10" y="12" href="#simpleRect"></use><use fill="black" x="10" y="15" href="#simpleRect"></use><use fill="black" x="10" y="16" href="#simpleRect"></use><use fill="black" x="10" y="20" href="#simpleRect"></use><use fill="black" x="10" y="21" href="#simpleRect"></use><use fill="black" x="10" y="24" href="#simpleRect"></use><use fill="black" x="10" y="26" href="#simpleRect"></use><use fill="black" x="10" y="28" href="#simpleRect"></use><use fill="black" x="11" y="2" href="#simpleRect"></use><use fill="black" x="11" y="4" href="#simpleRect"></use><use fill="black" x="11" y="5" href="#simpleRect"></use><use fill="black" x="11" y="7" href="#simpleRect"></use><use fill="black" x="11" y="10" href="#simpleRect"></use><use fill="black" x="11" y="11" href="#simpleRect"></use><use fill="black" x="11" y="12" href="#simpleRect"></use><use fill="black" x="11" y="17" href="#simpleRect"></use><use fill="black" x="11" y="21" href="#simpleRect"></use><use fill="black" x="11" y="24" href="#simpleRect"></use><use fill="black" x="11" y="25" href="#simpleRect"></use><use fill="black" x="11" y="27" href="#simpleRect"></use><use fill="black" x="11" y="28" href="#simpleRect"></use><use fill="black" x="12" y="0" href="#simpleRect"></use><use fill="black" x="12" y="1" href="#simpleRect"></use><use fill="black" x="12" y="5" href="#simpleRect"></use><use fill="black" x="12" y="6" href="#simpleRect"></use><use fill="black" x="12" y="7" href="#simpleRect"></use><use fill="black" x="12" y="8" href="#simpleRect"></use><use fill="black" x="12" y="9" href="#simpleRect"></use><use fill="black" x="12" y="10" href="#simpleRect"></use><use fill="black" x="12" y="11" href="#simpleRect"></use><use fill="black" x="12" y="16" href="#simpleRect"></use><use fill="black" x="12" y="17" href="#simpleRect"></use><use fill="black" x="12" y="18" href="#simpleRect"></use><use fill="black" x="12" y="19" href="#simpleRect"></use><use fill="black" x="12" y="23" href="#simpleRect"></use><use fill="black" x="12" y="25" href="#simpleRect"></use><use fill="black" x="12" y="28" href="#simpleRect"></use><use fill="black" x="13" y="0" href="#simpleRect"></use><use fill="black" x="13" y="1" href="#simpleRect"></use><use fill="black" x="13" y="3" href="#simpleRect"></use><use fill="black" x="13" y="4" href="#simpleRect"></use><use fill="black" x="13" y="5" href="#simpleRect"></use><use fill="black" x="13" y="8" href="#simpleRect"></use><use fill="black" x="13" y="12" href="#simpleRect"></use><use fill="black" x="13" y="14" href="#simpleRect"></use><use fill="black" x="13" y="15" href="#simpleRect"></use><use fill="black" x="13" y="17" href="#simpleRect"></use><use fill="black" x="13" y="18" href="#simpleRect"></use><use fill="black" x="13" y="22" href="#simpleRect"></use><use fill="black" x="13" y="24" href="#simpleRect"></use><use fill="black" x="13" y="26" href="#simpleRect"></use><use fill="black" x="13" y="28" href="#simpleRect"></use><use fill="black" x="14" y="0" href="#simpleRect"></use><use fill="black" x="14" y="2" href="#simpleRect"></use><use fill="black" x="14" y="3" href="#simpleRect"></use><use fill="black" x="14" y="6" href="#simpleRect"></use><use fill="black" x="14" y="7" href="#simpleRect"></use><use fill="black" x="14" y="8" href="#simpleRect"></use><use fill="black" x="14" y="11" href="#simpleRect"></use><use fill="black" x="14" y="12" href="#simpleRect"></use><use fill="black" x="14" y="13" href="#simpleRect"></use><use fill="black" x="14" y="14" href="#simpleRect"></use><use fill="black" x="14" y="15" href="#simpleRect"></use><use fill="black" x="14" y="16" href="#simpleRect"></use><use fill="black" x="14" y="20" href="#simpleRect"></use><use fill="black" x="14" y="24" href="#simpleRect"></use><use fill="black" x="14" y="27" href="#simpleRect"></use><use fill="black" x="14" y="28" href="#simpleRect"></use><use fill="black" x="15" y="0" href="#simpleRect"></use><use fill="black" x="15" y="3" href="#simpleRect"></use><use fill="black" x="15" y="4" href="#simpleRect"></use><use fill="black" x="15" y="5" href="#simpleRect"></use><use fill="black" x="15" y="7" href="#simpleRect"></use><use fill="black" x="15" y="8" href="#simpleRect"></use><use fill="black" x="15" y="10" href="#simpleRect"></use><use fill="black" x="15" y="13" href="#simpleRect"></use><use fill="black" x="15" y="14" href="#simpleRect"></use><use fill="black" x="15" y="15" href="#simpleRect"></use><use fill="black" x="15" y="16" href="#simpleRect"></use><use fill="black" x="15" y="17" href="#simpleRect"></use><use fill="black" x="15" y="18" href="#simpleRect"></use><use fill="black" x="15" y="21" href="#simpleRect"></use><use fill="black" x="15" y="23" href="#simpleRect"></use><use fill="black" x="15" y="25" href="#simpleRect"></use><use fill="black" x="15" y="27" href="#simpleRect"></use><use fill="black" x="16" y="3" href="#simpleRect"></use><use fill="black" x="16" y="6" href="#simpleRect"></use><use fill="black" x="16" y="7" href="#simpleRect"></use><use fill="black" x="16" y="8" href="#simpleRect"></use><use fill="black" x="16" y="9" href="#simpleRect"></use><use fill="black" x="16" y="11" href="#simpleRect"></use><use fill="black" x="16" y="16" href="#simpleRect"></use><use fill="black" x="16" y="18" href="#simpleRect"></use><use fill="black" x="16" y="19" href="#simpleRect"></use><use fill="black" x="16" y="20" href="#simpleRect"></use><use fill="black" x="16" y="21" href="#simpleRect"></use><use fill="black" x="16" y="22" href="#simpleRect"></use><use fill="black" x="16" y="27" href="#simpleRect"></use><use fill="black" x="17" y="0" href="#simpleRect"></use><use fill="black" x="17" y="1" href="#simpleRect"></use><use fill="black" x="17" y="7" href="#simpleRect"></use><use fill="black" x="17" y="8" href="#simpleRect"></use><use fill="black" x="17" y="11" href="#simpleRect"></use><use fill="black" x="17" y="13" href="#simpleRect"></use><use fill="black" x="17" y="17" href="#simpleRect"></use><use fill="black" x="17" y="18" href="#simpleRect"></use><use fill="black" x="17" y="19" href="#simpleRect"></use><use fill="black" x="17" y="24" href="#simpleRect"></use><use fill="black" x="17" y="25" href="#simpleRect"></use><use fill="black" x="17" y="26" href="#simpleRect"></use><use fill="black" x="17" y="28" href="#simpleRect"></use><use fill="black" x="18" y="2" href="#simpleRect"></use><use fill="black" x="18" y="4" href="#simpleRect"></use><use fill="black" x="18" y="6" href="#simpleRect"></use><use fill="black" x="18" y="7" href="#simpleRect"></use><use fill="black" x="18" y="8" href="#simpleRect"></use><use fill="black" x="18" y="9" href="#simpleRect"></use><use fill="black" x="18" y="13" href="#simpleRect"></use><use fill="black" x="18" y="15" href="#simpleRect"></use><use fill="black" x="18" y="19" href="#simpleRect"></use><use fill="black" x="18" y="25" href="#simpleRect"></use><use fill="black" x="18" y="26" href="#simpleRect"></use><use fill="black" x="18" y="28" href="#simpleRect"></use><use fill="black" x="19" y="2" href="#simpleRect"></use><use fill="black" x="19" y="4" href="#simpleRect"></use><use fill="black" x="19" y="7" href="#simpleRect"></use><use fill="black" x="19" y="10" href="#simpleRect"></use><use fill="black" x="19" y="11" href="#simpleRect"></use><use fill="black" x="19" y="12" href="#simpleRect"></use><use fill="black" x="19" y="15" href="#simpleRect"></use><use fill="black" x="19" y="19" href="#simpleRect"></use><use fill="black" x="19" y="20" href="#simpleRect"></use><use fill="black" x="19" y="24" href="#simpleRect"></use><use fill="black" x="19" y="25" href="#simpleRect"></use><use fill="black" x="19" y="27" href="#simpleRect"></use><use fill="black" x="20" y="0" href="#simpleRect"></use><use fill="black" x="20" y="1" href="#simpleRect"></use><use fill="black" x="20" y="3" href="#simpleRect"></use><use fill="black" x="20" y="6" href="#simpleRect"></use><use fill="black" x="20" y="7" href="#simpleRect"></use><use fill="black" x="20" y="8" href="#simpleRect"></use><use fill="black" x="20" y="9" href="#simpleRect"></use><use fill="black" x="20" y="10" href="#simpleRect"></use><use fill="black" x="20" y="12" href="#simpleRect"></use><use fill="black" x="20" y="14" href="#simpleRect"></use><use fill="black" x="20" y="15" href="#simpleRect"></use><use fill="black" x="20" y="16" href="#simpleRect"></use><use fill="black" x="20" y="17" href="#simpleRect"></use><use fill="black" x="20" y="18" href="#simpleRect"></use><use fill="black" x="20" y="20" href="#simpleRect"></use><use fill="black" x="20" y="21" href="#simpleRect"></use><use fill="black" x="20" y="22" href="#simpleRect"></use><use fill="black" x="20" y="23" href="#simpleRect"></use><use fill="black" x="20" y="24" href="#simpleRect"></use><use fill="black" x="20" y="25" href="#simpleRect"></use><use fill="black" x="21" y="8" href="#simpleRect"></use><use fill="black" x="21" y="9" href="#simpleRect"></use><use fill="black" x="21" y="12" href="#simpleRect"></use><use fill="black" x="21" y="14" href="#simpleRect"></use><use fill="black" x="21" y="15" href="#simpleRect"></use><use fill="black" x="21" y="20" href="#simpleRect"></use><use fill="black" x="21" y="24" href="#simpleRect"></use><use fill="black" x="21" y="26" href="#simpleRect"></use><use fill="black" x="21" y="28" href="#simpleRect"></use><use fill="black" x="22" y="0" href="#simpleRect"></use><use fill="black" x="22" y="1" href="#simpleRect"></use><use fill="black" x="22" y="2" href="#simpleRect"></use><use fill="black" x="22" y="3" href="#simpleRect"></use><use fill="black" x="22" y="4" href="#simpleRect"></use><use fill="black" x="22" y="5" href="#simpleRect"></use><use fill="black" x="22" y="6" href="#simpleRect"></use><use fill="black" x="22" y="8" href="#simpleRect"></use><use fill="black" x="22" y="10" href="#simpleRect"></use><use fill="black" x="22" y="19" href="#simpleRect"></use><use fill="black" x="22" y="20" href="#simpleRect"></use><use fill="black" x="22" y="22" href="#simpleRect"></use><use fill="black" x="22" y="24" href="#simpleRect"></use><use fill="black" x="22" y="28" href="#simpleRect"></use><use fill="black" x="23" y="0" href="#simpleRect"></use><use fill="black" x="23" y="6" href="#simpleRect"></use><use fill="black" x="23" y="8" href="#simpleRect"></use><use fill="black" x="23" y="10" href="#simpleRect"></use><use fill="black" x="23" y="11" href="#simpleRect"></use><use fill="black" x="23" y="14" href="#simpleRect"></use><use fill="black" x="23" y="15" href="#simpleRect"></use><use fill="black" x="23" y="17" href="#simpleRect"></use><use fill="black" x="23" y="19" href="#simpleRect"></use><use fill="black" x="23" y="20" href="#simpleRect"></use><use fill="black" x="23" y="24" href="#simpleRect"></use><use fill="black" x="23" y="25" href="#simpleRect"></use><use fill="black" x="23" y="27" href="#simpleRect"></use><use fill="black" x="23" y="28" href="#simpleRect"></use><use fill="black" x="24" y="0" href="#simpleRect"></use><use fill="black" x="24" y="2" href="#simpleRect"></use><use fill="black" x="24" y="3" href="#simpleRect"></use><use fill="black" x="24" y="4" href="#simpleRect"></use><use fill="black" x="24" y="6" href="#simpleRect"></use><use fill="black" x="24" y="8" href="#simpleRect"></use><use fill="black" x="24" y="9" href="#simpleRect"></use><use fill="black" x="24" y="10" href="#simpleRect"></use><use fill="black" x="24" y="11" href="#simpleRect"></use><use fill="black" x="24" y="13" href="#simpleRect"></use><use fill="black" x="24" y="15" href="#simpleRect"></use><use fill="black" x="24" y="17" href="#simpleRect"></use><use fill="black" x="24" y="18" href="#simpleRect"></use><use fill="black" x="24" y="19" href="#simpleRect"></use><use fill="black" x="24" y="20" href="#simpleRect"></use><use fill="black" x="24" y="21" href="#simpleRect"></use><use fill="black" x="24" y="22" href="#simpleRect"></use><use fill="black" x="24" y="23" href="#simpleRect"></use><use fill="black" x="24" y="24" href="#simpleRect"></use><use fill="black" x="24" y="27" href="#simpleRect"></use><use fill="black" x="25" y="0" href="#simpleRect"></use><use fill="black" x="25" y="2" href="#simpleRect"></use><use fill="black" x="25" y="3" href="#simpleRect"></use><use fill="black" x="25" y="4" href="#simpleRect"></use><use fill="black" x="25" y="6" href="#simpleRect"></use><use fill="black" x="25" y="9" href="#simpleRect"></use><use fill="black" x="25" y="10" href="#simpleRect"></use><use fill="black" x="25" y="11" href="#simpleRect"></use><use fill="black" x="25" y="12" href="#simpleRect"></use><use fill="black" x="25" y="14" href="#simpleRect"></use><use fill="black" x="25" y="23" href="#simpleRect"></use><use fill="black" x="25" y="27" href="#simpleRect"></use><use fill="black" x="26" y="0" href="#simpleRect"></use><use fill="black" x="26" y="2" href="#simpleRect"></use><use fill="black" x="26" y="3" href="#simpleRect"></use><use fill="black" x="26" y="4" href="#simpleRect"></use><use fill="black" x="26" y="6" href="#simpleRect"></use><use fill="black" x="26" y="10" href="#simpleRect"></use><use fill="black" x="26" y="13" href="#simpleRect"></use><use fill="black" x="26" y="15" href="#simpleRect"></use><use fill="black" x="26" y="16" href="#simpleRect"></use><use fill="black" x="26" y="17" href="#simpleRect"></use><use fill="black" x="26" y="19" href="#simpleRect"></use><use fill="black" x="26" y="20" href="#simpleRect"></use><use fill="black" x="26" y="21" href="#simpleRect"></use><use fill="black" x="26" y="25" href="#simpleRect"></use><use fill="black" x="26" y="26" href="#simpleRect"></use><use fill="black" x="26" y="27" href="#simpleRect"></use><use fill="black" x="26" y="28" href="#simpleRect"></use><use fill="black" x="27" y="0" href="#simpleRect"></use><use fill="black" x="27" y="6" href="#simpleRect"></use><use fill="black" x="27" y="9" href="#simpleRect"></use><use fill="black" x="27" y="10" href="#simpleRect"></use><use fill="black" x="27" y="11" href="#simpleRect"></use><use fill="black" x="27" y="13" href="#simpleRect"></use><use fill="black" x="27" y="14" href="#simpleRect"></use><use fill="black" x="27" y="15" href="#simpleRect"></use><use fill="black" x="27" y="17" href="#simpleRect"></use><use fill="black" x="27" y="19" href="#simpleRect"></use><use fill="black" x="27" y="21" href="#simpleRect"></use><use fill="black" x="27" y="22" href="#simpleRect"></use><use fill="black" x="27" y="23" href="#simpleRect"></use><use fill="black" x="27" y="25" href="#simpleRect"></use><use fill="black" x="27" y="27" href="#simpleRect"></use><use fill="black" x="27" y="28" href="#simpleRect"></use><use fill="black" x="28" y="0" href="#simpleRect"></use><use fill="black" x="28" y="1" href="#simpleRect"></use><use fill="black" x="28" y="2" href="#simpleRect"></use><use fill="black" x="28" y="3" href="#simpleRect"></use><use fill="black" x="28" y="4" href="#simpleRect"></use><use fill="black" x="28" y="5" href="#simpleRect"></use><use fill="black" x="28" y="6" href="#simpleRect"></use><use fill="black" x="28" y="9" href="#simpleRect"></use><use fill="black" x="28" y="14" href="#simpleRect"></use><use fill="black" x="28" y="15" href="#simpleRect"></use><use fill="black" x="28" y="17" href="#simpleRect"></use><use fill="black" x="28" y="19" href="#simpleRect"></use><use fill="black" x="28" y="20" href="#simpleRect"></use><use fill="black" x="28" y="21" href="#simpleRect"></use><use fill="black" x="28" y="24" href="#simpleRect"></use><use fill="black" x="28" y="25" href="#simpleRect"></use><use fill="black" x="28" y="27" href="#simpleRect"></use></svg>