<?xml version="1.0" encoding="utf-8"?>
 <!DOCTYPE svg PUBLIC "-//W3C//DTD SVG 20010904//EN" "http://www.w3.org/TR/2001/REC-SVG-20010904/DTD/svg10.dtd">
<svg class="Qr-item-svg" width="100%" height="100%" viewBox="0 0 29 29" fill="white" xmlns="http://www.w3.org/2000/svg" xmlns:xlink="http://www.w3.org/1999/xlink"><rect fill="green" width="1" height="1" id="simpleRect"></rect><use fill="green" x="0" y="0" href="#simpleRect"></use><use fill="green" x="0" y="1" href="#simpleRect"></use><use fill="green" x="0" y="2" href="#simpleRect"></use><use fill="green" x="0" y="3" href="#simpleRect"></use><use fill="green" x="0" y="4" href="#simpleRect"></use><use fill="green" x="0" y="5" href="#simpleRect"></use><use fill="green" x="0" y="6" href="#simpleRect"></use><use fill="green" x="0" y="8" href="#simpleRect"></use><use fill="green" x="0" y="10" href="#simpleRect"></use><use fill="green" x="0" y="11" href="#simpleRect"></use><use fill="green" x="0" y="12" href="#simpleRect"></use><use fill="green" x="0" y="14" href="#simpleRect"></use><use fill="green" x="0" y="15" href="#simpleRect"></use><use fill="green" x="0" y="17" href="#simpleRect"></use><use fill="green" x="0" y="18" href="#simpleRect"></use><use fill="green" x="0" y="22" href="#simpleRect"></use><use fill="green" x="0" y="23" href="#simpleRect"></use><use fill="green" x="0" y="24" href="#simpleRect"></use><use fill="green" x="0" y="25" href="#simpleRect"></use><use fill="green" x="0" y="26" href="#simpleRect"></use><use fill="green" x="0" y="27" href="#simpleRect"></use><use fill="green" x="0" y="28" href="#simpleRect"></use><use fill="green" x="1" y="0" href="#simpleRect"></use><use fill="green" x="1" y="6" href="#simpleRect"></use><use fill="green" x="1" y="9" href="#simpleRect"></use><use fill="green" x="1" y="14" href="#simpleRect"></use><use fill="green" x="1" y="18" href="#simpleRect"></use><use fill="green" x="1" y="22" href="#simpleRect"></use><use fill="green" x="1" y="28" href="#simpleRect"></use><use fill="green" x="2" y="0" href="#simpleRect"></use><use fill="green" x="2" y="2" href="#simpleRect"></use><use fill="green" x="2" y="3" href="#simpleRect"></use><use fill="green" x="2" y="4" href="#simpleRect"></use><use fill="green" x="2" y="6" href="#simpleRect"></use><use fill="green" x="2" y="9" href="#simpleRect"></use><use fill="green" x="2" y="10" href="#simpleRect"></use><use fill="green" x="2" y="14" href="#simpleRect"></use><use fill="green" x="2" y="15" href="#simpleRect"></use><use fill="green" x="2" y="16" href="#simpleRect"></use><use fill="green" x="2" y="18" href="#simpleRect"></use><use fill="green" x="2" y="19" href="#simpleRect"></use><use fill="green" x="2" y="22" href="#simpleRect"></use><use fill="green" x="2" y="24" href="#simpleRect"></use><use fill="green" x="2" y="25" href="#simpleRect"></use><use fill="green" x="2" y="26" href="#simpleRect"></use><use fill="green" x="2" y="28" href="#simpleRect"></use><use fill="green" x="3" y="0" href="#simpleRect"></use><use fill="green" x="3" y="2" href="#simpleRect"></use><use fill="green" x="3" y="3" href="#simpleRect"></use><use fill="green" x="3" y="4" href="#simpleRect"></use><use fill="green" x="3" y="6" href="#simpleRect"></use><use fill="green" x="3" y="8" href="#simpleRect"></use><use fill="green" x="3" y="10" href="#simpleRect"></use><use fill="green" x="3" y="11" href="#simpleRect"></use><use fill="green" x="3" y="13" href="#simpleRect"></use><use fill="green" x="3" y="14" href="#simpleRect"></use><use fill="green" x="3" y="16" href="#simpleRect"></use><use fill="green" x="3" y="18" href="#simpleRect"></use><use fill="green" x="3" y="22" href="#simpleRect"></use><use fill="green" x="3" y="24" href="#simpleRect"></use><use fill="green" x="3" y="25" href="#simpleRect"></use><use fill="green" x="3" y="26" href="#simpleRect"></use><use fill="green" x="3" y="28" href="#simpleRect"></use><use fill="green" x="4" y="0" href="#simpleRect"></use><use fill="green" x="4" y="2" href="#simpleRect"></use><use fill="green" x="4" y="3" href="#simpleRect"></use><use fill="green" x="4" y="4" href="#simpleRect"></use><use fill="green" x="4" y="6" href="#simpleRect"></use><use fill="green" x="4" y="11" href="#simpleRect"></use><use fill="green" x="4" y="14" href="#simpleRect"></use><use fill="green" x="4" y="18" href="#simpleRect"></use><use fill="green" x="4" y="19" href="#simpleRect"></use><use fill="green" x="4" y="20" href="#simpleRect"></use><use fill="green" x="4" y="22" href="#simpleRect"></use><use fill="green" x="4" y="24" href="#simpleRect"></use><use fill="green" x="4" y="25" href="#simpleRect"></use><use fill="green" x="4" y="26" href="#simpleRect"></use><use fill="green" x="4" y="28" href="#simpleRect"></use><use fill="green" x="5" y="0" href="#simpleRect"></use><use fill="green" x="5" y="6" href="#simpleRect"></use><use fill="green" x="5" y="10" href="#simpleRect"></use><use fill="green" x="5" y="11" href="#simpleRect"></use><use fill="green" x="5" y="12" href="#simpleRect"></use><use fill="green" x="5" y="13" href="#simpleRect"></use><use fill="green" x="5" y="14" href="#simpleRect"></use><use fill="green" x="5" y="17" href="#simpleRect"></use><use fill="green" x="5" y="19" href="#simpleRect"></use><use fill="green" x="5" y="20" href="#simpleRect"></use><use fill="green" x="5" y="22" href="#simpleRect"></use><use fill="green" x="5" y="28" href="#simpleRect"></use><use fill="green" x="6" y="0" href="#simpleRect"></use><use fill="green" x="6" y="1" href="#simpleRect"></use><use fill="green" x="6" y="2" href="#simpleRect"></use><use fill="green" x="6" y="3" href="#simpleRect"></use><use fill="green" x="6" y="4" href="#simpleRect"></use><use fill="green" x="6" y="5" href="#simpleRect"></use><use fill="green" x="6" y="6" href="#simpleRect"></use><use fill="green" x="6" y="8" href="#simpleRect"></use><use fill="green" x="6" y="10" href="#simpleRect"></use><use fill="green" x="6" y="12" href="#simpleRect"></use><use fill="green" x="6" y="14" href="#simpleRect"></use><use fill="green" x="6" y="16" href="#simpleRect"></use><use fill="green" x="6" y="18" href="#simpleRect"></use><use fill="green" x="6" y="20" href="#simpleRect"></use><use fill="green" x="6" y="22" href="#simpleRect"></use><use fill="green" x="6" y="23" href="#simpleRect"></use><use fill="green" x="6" y="24" href="#simpleRect"></use><use fill="green" x="6" y="25" href="#simpleRect"></use><use fill="green" x="6" y="26" href="#simpleRect"></use><use fill="green" x="6" y="27" href="#simpleRect"></use><use fill="green" x="6" y="28" href="#simpleRect"></use><use fill="green" x="7" y="13" href="#simpleRect"></use><use fill="green" x="7" y="15" href="#simpleRect"></use><use fill="green" x="7" y="16" href="#simpleRect"></use><use fill="green" x="7" y="17" href="#simpleRect"></use><use fill="green" x="7" y="18" href="#simpleRect"></use><use fill="green" x="7" y="20" href="#simpleRect"></use><use fill="green" x="8" y="2" href="#simpleRect"></use><use fill="green" x="8" y="4" href="#simpleRect"></use><use fill="green" x="8" y="5" href="#simpleRect"></use><use fill="green" x="8" y="6" href="#simpleRect"></use><use fill="green" x="8" y="8" href="#simpleRect"></use><use fill="green" x="8" y="11" href="#simpleRect"></use><use fill="green" x="8" y="13" href="#simpleRect"></use><use fill="green" x="8" y="16" href="#simpleRect"></use><use fill="green" x="8" y="18" href="#simpleRect"></use><use fill="green" x="8" y="21" href="#simpleRect"></use><use fill="green" x="8" y="25" href="#simpleRect"></use><use fill="green" x="8" y="28" href="#simpleRect"></use><use fill="green" x="9" y="5" href="#simpleRect"></use><use fill="green" x="9" y="7" href="#simpleRect"></use><use fill="green" x="9" y="8" href="#simpleRect"></use><use fill="green" x="9" y="11" href="#simpleRect"></use><use fill="green" x="9" y="12" href="#simpleRect"></use><use fill="green" x="9" y="15" href="#simpleRect"></use><use fill="green" x="9" y="18" href="#simpleRect"></use><use fill="green" x="9" y="19" href="#simpleRect"></use><use fill="green" x="9" y="21" href="#simpleRect"></use><use fill="green" x="9" y="22" href="#simpleRect"></use><use fill="green" x="9" y="25" href="#simpleRect"></use><use fill="green" x="9" y="26" href="#simpleRect"></use><use fill="green" x="9" y="28" href="#simpleRect"></use><use fill="green" x="10" y="0" href="#simpleRect"></use><use fill="green" x="10" y="3" href="#simpleRect"></use><use fill="green" x="10" y="5" href="#simpleRect"></use><use fill="green" x="10" y="6" href="#simpleRect"></use><use fill="green" x="10" y="8" href="#simpleRect"></use><use fill="green" x="10" y="9" href="#simpleRect"></use><use fill="green" x="10" y="10" href="#simpleRect"></use><use fill="green" x="10" y="12" href="#simpleRect"></use><use fill="green" x="10" y="15" href="#simpleRect"></use><use fill="green" x="10" y="16" href="#simpleRect"></use><use fill="green" x="10" y="18" href="#simpleRect"></use><use fill="green" x="10" y="21" href="#simpleRect"></use><use fill="green" x="10" y="23" href="#simpleRect"></use><use fill="green" x="10" y="25" href="#simpleRect"></use><use fill="green" x="10" y="26" href="#simpleRect"></use><use fill="green" x="10" y="27" href="#simpleRect"></use><use fill="green" x="10" y="28" href="#simpleRect"></use><use fill="green" x="11" y="0" href="#simpleRect"></use><use fill="green" x="11" y="1" href="#simpleRect"></use><use fill="green" x="11" y="2" href="#simpleRect"></use><use fill="green" x="11" y="3" href="#simpleRect"></use><use fill="green" x="11" y="5" href="#simpleRect"></use><use fill="green" x="11" y="7" href="#simpleRect"></use><use fill="green" x="11" y="13" href="#simpleRect"></use><use fill="green" x="11" y="15" href="#simpleRect"></use><use fill="green" x="11" y="16" href="#simpleRect"></use><use fill="green" x="11" y="17" href="#simpleRect"></use><use fill="green" x="11" y="18" href="#simpleRect"></use><use fill="green" x="11" y="19" href="#simpleRect"></use><use fill="green" x="11" y="22" href="#simpleRect"></use><use fill="green" x="11" y="23" href="#simpleRect"></use><use fill="green" x="11" y="27" href="#simpleRect"></use><use fill="green" x="12" y="0" href="#simpleRect"></use><use fill="green" x="12" y="3" href="#simpleRect"></use><use fill="green" x="12" y="4" href="#simpleRect"></use><use fill="green" x="12" y="6" href="#simpleRect"></use><use fill="green" x="12" y="7" href="#simpleRect"></use><use fill="green" x="12" y="9" href="#simpleRect"></use><use fill="green" x="12" y="10" href="#simpleRect"></use><use fill="green" x="12" y="11" href="#simpleRect"></use><use fill="green" x="12" y="12" href="#simpleRect"></use><use fill="green" x="12" y="15" href="#simpleRect"></use><use fill="green" x="12" y="16" href="#simpleRect"></use><use fill="green" x="12" y="18" href="#simpleRect"></use><use fill="green" x="12" y="22" href="#simpleRect"></use><use fill="green" x="13" y="0" href="#simpleRect"></use><use fill="green" x="13" y="4" href="#simpleRect"></use><use fill="green" x="13" y="11" href="#simpleRect"></use><use fill="green" x="13" y="16" href="#simpleRect"></use><use fill="green" x="13" y="20" href="#simpleRect"></use><use fill="green" x="13" y="21" href="#simpleRect"></use><use fill="green" x="13" y="22" href="#simpleRect"></use><use fill="green" x="13" y="23" href="#simpleRect"></use><use fill="green" x="13" y="27" href="#simpleRect"></use><use fill="green" x="13" y="28" href="#simpleRect"></use><use fill="green" x="14" y="0" href="#simpleRect"></use><use fill="green" x="14" y="3" href="#simpleRect"></use><use fill="green" x="14" y="5" href="#simpleRect"></use><use fill="green" x="14" y="6" href="#simpleRect"></use><use fill="green" x="14" y="9" href="#simpleRect"></use><use fill="green" x="14" y="14" href="#simpleRect"></use><use fill="green" x="14" y="15" href="#simpleRect"></use><use fill="green" x="14" y="16" href="#simpleRect"></use><use fill="green" x="14" y="18" href="#simpleRect"></use><use fill="green" x="14" y="21" href="#simpleRect"></use><use fill="green" x="14" y="26" href="#simpleRect"></use><use fill="green" x="14" y="27" href="#simpleRect"></use><use fill="green" x="14" y="28" href="#simpleRect"></use><use fill="green" x="15" y="0" href="#simpleRect"></use><use fill="green" x="15" y="2" href="#simpleRect"></use><use fill="green" x="15" y="3" href="#simpleRect"></use><use fill="green" x="15" y="5" href="#simpleRect"></use><use fill="green" x="15" y="7" href="#simpleRect"></use><use fill="green" x="15" y="10" href="#simpleRect"></use><use fill="green" x="15" y="12" href="#simpleRect"></use><use fill="green" x="15" y="13" href="#simpleRect"></use><use fill="green" x="15" y="17" href="#simpleRect"></use><use fill="green" x="15" y="18" href="#simpleRect"></use><use fill="green" x="15" y="20" href="#simpleRect"></use><use fill="green" x="15" y="22" href="#simpleRect"></use><use fill="green" x="15" y="23" href="#simpleRect"></use><use fill="green" x="15" y="24" href="#simpleRect"></use><use fill="green" x="16" y="0" href="#simpleRect"></use><use fill="green" x="16" y="3" href="#simpleRect"></use><use fill="green" x="16" y="4" href="#simpleRect"></use><use fill="green" x="16" y="6" href="#simpleRect"></use><use fill="green" x="16" y="9" href="#simpleRect"></use><use fill="green" x="16" y="10" href="#simpleRect"></use><use fill="green" x="16" y="11" href="#simpleRect"></use><use fill="green" x="16" y="12" href="#simpleRect"></use><use fill="green" x="16" y="15" href="#simpleRect"></use><use fill="green" x="16" y="17" href="#simpleRect"></use><use fill="green" x="16" y="18" href="#simpleRect"></use><use fill="green" x="16" y="20" href="#simpleRect"></use><use fill="green" x="16" y="21" href="#simpleRect"></use><use fill="green" x="16" y="22" href="#simpleRect"></use><use fill="green" x="16" y="25" href="#simpleRect"></use><use fill="green" x="16" y="28" href="#simpleRect"></use><use fill="green" x="17" y="2" href="#simpleRect"></use><use fill="green" x="17" y="7" href="#simpleRect"></use><use fill="green" x="17" y="13" href="#simpleRect"></use><use fill="green" x="17" y="14" href="#simpleRect"></use><use fill="green" x="17" y="15" href="#simpleRect"></use><use fill="green" x="17" y="16" href="#simpleRect"></use><use fill="green" x="17" y="19" href="#simpleRect"></use><use fill="green" x="17" y="20" href="#simpleRect"></use><use fill="green" x="17" y="21" href="#simpleRect"></use><use fill="green" x="17" y="22" href="#simpleRect"></use><use fill="green" x="17" y="27" href="#simpleRect"></use><use fill="green" x="17" y="28" href="#simpleRect"></use><use fill="green" x="18" y="0" href="#simpleRect"></use><use fill="green" x="18" y="2" href="#simpleRect"></use><use fill="green" x="18" y="3" href="#simpleRect"></use><use fill="green" x="18" y="6" href="#simpleRect"></use><use fill="green" x="18" y="7" href="#simpleRect"></use><use fill="green" x="18" y="8" href="#simpleRect"></use><use fill="green" x="18" y="12" href="#simpleRect"></use><use fill="green" x="18" y="15" href="#simpleRect"></use><use fill="green" x="18" y="17" href="#simpleRect"></use><use fill="green" x="18" y="19" href="#simpleRect"></use><use fill="green" x="18" y="20" href="#simpleRect"></use><use fill="green" x="18" y="21" href="#simpleRect"></use><use fill="green" x="18" y="26" href="#simpleRect"></use><use fill="green" x="18" y="27" href="#simpleRect"></use><use fill="green" x="18" y="28" href="#simpleRect"></use><use fill="green" x="19" y="1" href="#simpleRect"></use><use fill="green" x="19" y="4" href="#simpleRect"></use><use fill="green" x="19" y="7" href="#simpleRect"></use><use fill="green" x="19" y="8" href="#simpleRect"></use><use fill="green" x="19" y="9" href="#simpleRect"></use><use fill="green" x="19" y="10" href="#simpleRect"></use><use fill="green" x="19" y="11" href="#simpleRect"></use><use fill="green" x="19" y="14" href="#simpleRect"></use><use fill="green" x="19" y="17" href="#simpleRect"></use><use fill="green" x="19" y="18" href="#simpleRect"></use><use fill="green" x="19" y="20" href="#simpleRect"></use><use fill="green" x="19" y="22" href="#simpleRect"></use><use fill="green" x="19" y="24" href="#simpleRect"></use><use fill="green" x="19" y="27" href="#simpleRect"></use><use fill="green" x="20" y="0" href="#simpleRect"></use><use fill="green" x="20" y="3" href="#simpleRect"></use><use fill="green" x="20" y="4" href="#simpleRect"></use><use fill="green" x="20" y="5" href="#simpleRect"></use><use fill="green" x="20" y="6" href="#simpleRect"></use><use fill="green" x="20" y="7" href="#simpleRect"></use><use fill="green" x="20" y="9" href="#simpleRect"></use><use fill="green" x="20" y="10" href="#simpleRect"></use><use fill="green" x="20" y="12" href="#simpleRect"></use><use fill="green" x="20" y="13" href="#simpleRect"></use><use fill="green" x="20" y="17" href="#simpleRect"></use><use fill="green" x="20" y="18" href="#simpleRect"></use><use fill="green" x="20" y="19" href="#simpleRect"></use><use fill="green" x="20" y="20" href="#simpleRect"></use><use fill="green" x="20" y="21" href="#simpleRect"></use><use fill="green" x="20" y="22" href="#simpleRect"></use><use fill="green" x="20" y="23" href="#simpleRect"></use><use fill="green" x="20" y="24" href="#simpleRect"></use><use fill="green" x="20" y="25" href="#simpleRect"></use><use fill="green" x="20" y="27" href="#simpleRect"></use><use fill="green" x="20" y="28" href="#simpleRect"></use><use fill="green" x="21" y="8" href="#simpleRect"></use><use fill="green" x="21" y="9" href="#simpleRect"></use><use fill="green" x="21" y="10" href="#simpleRect"></use><use fill="green" x="21" y="11" href="#simpleRect"></use><use fill="green" x="21" y="13" href="#simpleRect"></use><use fill="green" x="21" y="16" href="#simpleRect"></use><use fill="green" x="21" y="20" href="#simpleRect"></use><use fill="green" x="21" y="24" href="#simpleRect"></use><use fill="green" x="21" y="27" href="#simpleRect"></use><use fill="green" x="21" y="28" href="#simpleRect"></use><use fill="green" x="22" y="0" href="#simpleRect"></use><use fill="green" x="22" y="1" href="#simpleRect"></use><use fill="green" x="22" y="2" href="#simpleRect"></use><use fill="green" x="22" y="3" href="#simpleRect"></use><use fill="green" x="22" y="4" href="#simpleRect"></use><use fill="green" x="22" y="5" href="#simpleRect"></use><use fill="green" x="22" y="6" href="#simpleRect"></use><use fill="green" x="22" y="12" href="#simpleRect"></use><use fill="green" x="22" y="13" href="#simpleRect"></use><use fill="green" x="22" y="14" href="#simpleRect"></use><use fill="green" x="22" y="15" href="#simpleRect"></use><use fill="green" x="22" y="16" href="#simpleRect"></use><use fill="green" x="22" y="19" href="#simpleRect"></use><use fill="green" x="22" y="20" href="#simpleRect"></use><use fill="green" x="22" y="22" href="#simpleRect"></use><use fill="green" x="22" y="24" href="#simpleRect"></use><use fill="green" x="22" y="26" href="#simpleRect"></use><use fill="green" x="22" y="27" href="#simpleRect"></use><use fill="green" x="22" y="28" href="#simpleRect"></use><use fill="green" x="23" y="0" href="#simpleRect"></use><use fill="green" x="23" y="6" href="#simpleRect"></use><use fill="green" x="23" y="8" href="#simpleRect"></use><use fill="green" x="23" y="10" href="#simpleRect"></use><use fill="green" x="23" y="11" href="#simpleRect"></use><use fill="green" x="23" y="12" href="#simpleRect"></use><use fill="green" x="23" y="16" href="#simpleRect"></use><use fill="green" x="23" y="17" href="#simpleRect"></use><use fill="green" x="23" y="20" href="#simpleRect"></use><use fill="green" x="23" y="24" href="#simpleRect"></use><use fill="green" x="23" y="27" href="#simpleRect"></use><use fill="green" x="23" y="28" href="#simpleRect"></use><use fill="green" x="24" y="0" href="#simpleRect"></use><use fill="green" x="24" y="2" href="#simpleRect"></use><use fill="green" x="24" y="3" href="#simpleRect"></use><use fill="green" x="24" y="4" href="#simpleRect"></use><use fill="green" x="24" y="6" href="#simpleRect"></use><use fill="green" x="24" y="8" href="#simpleRect"></use><use fill="green" x="24" y="10" href="#simpleRect"></use><use fill="green" x="24" y="14" href="#simpleRect"></use><use fill="green" x="24" y="20" href="#simpleRect"></use><use fill="green" x="24" y="21" href="#simpleRect"></use><use fill="green" x="24" y="22" href="#simpleRect"></use><use fill="green" x="24" y="23" href="#simpleRect"></use><use fill="green" x="24" y="24" href="#simpleRect"></use><use fill="green" x="24" y="25" href="#simpleRect"></use><use fill="green" x="24" y="28" href="#simpleRect"></use><use fill="green" x="25" y="0" href="#simpleRect"></use><use fill="green" x="25" y="2" href="#simpleRect"></use><use fill="green" x="25" y="3" href="#simpleRect"></use><use fill="green" x="25" y="4" href="#simpleRect"></use><use fill="green" x="25" y="6" href="#simpleRect"></use><use fill="green" x="25" y="10" href="#simpleRect"></use><use fill="green" x="25" y="11" href="#simpleRect"></use><use fill="green" x="25" y="12" href="#simpleRect"></use><use fill="green" x="25" y="13" href="#simpleRect"></use><use fill="green" x="25" y="20" href="#simpleRect"></use><use fill="green" x="25" y="24" href="#simpleRect"></use><use fill="green" x="26" y="0" href="#simpleRect"></use><use fill="green" x="26" y="2" href="#simpleRect"></use><use fill="green" x="26" y="3" href="#simpleRect"></use><use fill="green" x="26" y="4" href="#simpleRect"></use><use fill="green" x="26" y="6" href="#simpleRect"></use><use fill="green" x="26" y="8" href="#simpleRect"></use><use fill="green" x="26" y="9" href="#simpleRect"></use><use fill="green" x="26" y="10" href="#simpleRect"></use><use fill="green" x="26" y="12" href="#simpleRect"></use><use fill="green" x="26" y="13" href="#simpleRect"></use><use fill="green" x="26" y="15" href="#simpleRect"></use><use fill="green" x="26" y="17" href="#simpleRect"></use><use fill="green" x="26" y="19" href="#simpleRect"></use><use fill="green" x="26" y="20" href="#simpleRect"></use><use fill="green" x="26" y="21" href="#simpleRect"></use><use fill="green" x="26" y="24" href="#simpleRect"></use><use fill="green" x="26" y="25" href="#simpleRect"></use><use fill="green" x="26" y="26" href="#simpleRect"></use><use fill="green" x="26" y="28" href="#simpleRect"></use><use fill="green" x="27" y="0" href="#simpleRect"></use><use fill="green" x="27" y="6" href="#simpleRect"></use><use fill="green" x="27" y="9" href="#simpleRect"></use><use fill="green" x="27" y="12" href="#simpleRect"></use><use fill="green" x="27" y="14" href="#simpleRect"></use><use fill="green" x="27" y="17" href="#simpleRect"></use><use fill="green" x="27" y="18" href="#simpleRect"></use><use fill="green" x="27" y="19" href="#simpleRect"></use><use fill="green" x="27" y="22" href="#simpleRect"></use><use fill="green" x="27" y="23" href="#simpleRect"></use><use fill="green" x="27" y="25" href="#simpleRect"></use><use fill="green" x="27" y="27" href="#simpleRect"></use><use fill="green" x="28" y="0" href="#simpleRect"></use><use fill="green" x="28" y="1" href="#simpleRect"></use><use fill="green" x="28" y="2" href="#simpleRect"></use><use fill="green" x="28" y="3" href="#simpleRect"></use><use fill="green" x="28" y="4" href="#simpleRect"></use><use fill="green" x="28" y="5" href="#simpleRect"></use><use fill="green" x="28" y="6" href="#simpleRect"></use><use fill="green" x="28" y="9" href="#simpleRect"></use><use fill="green" x="28" y="10" href="#simpleRect"></use><use fill="green" x="28" y="12" href="#simpleRect"></use><use fill="green" x="28" y="13" href="#simpleRect"></use><use fill="green" x="28" y="15" href="#simpleRect"></use><use fill="green" x="28" y="16" href="#simpleRect"></use><use fill="green" x="28" y="17" href="#simpleRect"></use><use fill="green" x="28" y="20" href="#simpleRect"></use><use fill="green" x="28" y="21" href="#simpleRect"></use><use fill="green" x="28" y="22" href="#simpleRect"></use><use fill="green" x="28" y="24" href="#simpleRect"></use><use fill="green" x="28" y="27" href="#simpleRect"></use><use fill="green" x="28" y="28" href="#simpleRect"></use></svg>